<?xml version="1.0" encoding="utf-8" ?>
<svg xmlns="http://www.w3.org/2000/svg" xmlns:xlink="http://www.w3.org/1999/xlink" width="1024" height="1024">
	<path d="M558.157 335.115C558.358 335.103 558.558 335.088 558.759 335.079C568.209 334.689 576.647 337.532 583.673 343.949C598.547 357.535 599.888 375.637 600.824 394.37C602.082 394.28 605.74 388.729 606.752 387.433C612.587 379.959 620.663 373.638 629.493 370.13C640.788 365.643 653.514 364.905 664.811 369.798C675.023 374.22 682.214 381.969 686.235 392.326C692.12 407.485 690.417 420.492 687.026 435.781C685.249 443.796 683.314 451.027 680.034 458.591C690.58 457.264 703.099 461.226 712.808 465.123C726.088 470.453 740.209 480.188 745.923 493.833C749.916 503.368 749.306 513.517 745.302 522.944C739.196 537.317 726.409 547.092 713.573 555.153C710.079 557.348 706.516 559.883 702.676 561.424C708.478 573.571 713.067 586.868 712.799 600.501C712.5 615.704 705.933 629.774 694.983 640.213C696.476 645.31 698.692 650.213 700.483 655.214C703.674 664.123 706.666 673.12 709.721 682.078C711.521 687.353 713.715 692.817 714.718 698.305C725.765 700.248 737.817 700.179 749.008 700.816C749.321 691.83 748.006 676.712 754.406 669.392C755.377 668.281 756.765 667.263 758.319 667.372C759.665 667.467 760.806 668.382 761.684 669.33C768.984 677.216 769.19 691.234 768.97 701.26C782.168 702.103 798.557 703.826 811.589 703.111C812.509 700.125 812.099 696.545 812.262 693.428C812.604 686.933 813.706 675.282 818.427 670.36C819.491 669.251 820.987 668.591 822.543 668.669C823.927 668.739 825.121 669.43 826.053 670.419C832.572 677.341 831.943 695.932 831.802 704.958C843.955 704.98 856.166 705.913 868.301 706.564C868.728 696.676 868.279 683.989 873.24 675.111C874.505 672.848 875.89 671.045 878.46 670.322C880.013 670.45 880.792 670.774 881.86 671.946C889.996 680.875 888.583 696.419 887.935 707.425C895.059 707.733 925.407 708.443 929.891 710.918C932.989 719.143 932.384 754.962 932.685 766.049Q934.531 819.618 935.081 873.216C935.233 884.12 936.129 895.15 935.633 906.039C936.122 906.618 936.756 907.263 937.12 907.924C937.775 909.113 937.728 909.358 937.364 910.566C936.784 910.979 936.239 911.32 935.529 911.472C932.547 912.112 928.855 911.376 925.784 911.333Q915.604 911.257 905.424 911.332C888.753 911.401 872.07 911.767 855.402 911.584C827.834 911.28 800.285 910.268 772.71 910.099C760.94 910.027 670.937 910.165 668.541 908.654C668.054 901.55 673.727 882.762 675.122 874.195C659.995 872.808 644.505 873.836 629.308 873.454C602.931 872.791 576.623 873.17 550.25 873.366L458.393 873.69C447.343 874.429 436.016 873.797 424.932 873.846L349.495 873.944C342.537 873.966 335.673 877.003 328.642 877.473C319.506 878.083 311.554 875.039 302.692 874.637C293.222 874.208 282.578 876.376 273.291 874.646Q272.139 876.317 270.805 877.848C255.991 895.174 232.665 905.365 210.173 906.929C189.646 908.356 166.83 902.785 149.783 891.176C143.513 886.906 138.033 881.707 132.341 876.723C121.908 876.246 111.364 876.522 100.918 876.533C96.8797 876.538 92.5319 876.889 88.5352 876.445C87.0013 876.275 86.8442 876.335 85.9277 875.118L86.1059 874.179C86.9343 873.589 87.6087 873.381 88.6013 873.271C92.8735 872.8 97.5227 873.248 101.851 873.194C111.349 873.077 120.91 872.686 130.404 873.002C129.116 870.654 127.589 868.435 126.278 866.095C115.806 847.405 114.412 825.019 120.212 804.612C126.476 782.572 139.538 763.214 159.883 751.986C180.79 740.447 206.644 738.969 229.374 745.729Q230.352 746.018 231.322 746.331Q232.293 746.644 233.255 746.981Q234.218 747.317 235.172 747.677Q236.126 748.037 237.071 748.42Q238.016 748.804 238.951 749.21Q239.886 749.616 240.811 750.045Q241.736 750.474 242.651 750.925Q243.565 751.377 244.468 751.85Q245.371 752.324 246.262 752.819Q247.153 753.315 248.032 753.832Q248.911 754.349 249.777 754.888Q250.643 755.426 251.495 755.986Q252.348 756.545 253.186 757.125Q254.025 757.706 254.849 758.306Q255.673 758.906 256.482 759.527Q257.291 760.147 258.085 760.787Q258.879 761.427 259.657 762.087Q260.434 762.746 261.196 763.424Q261.958 764.102 262.702 764.799Q263.447 765.495 264.175 766.209Q264.902 766.924 265.612 767.656Q266.322 768.388 267.013 769.137Q267.705 769.886 268.378 770.652Q269.052 771.418 269.706 772.2Q270.36 772.982 270.995 773.78Q271.63 774.578 272.245 775.391Q272.861 776.204 273.456 777.032Q274.051 777.86 274.626 778.702Q275.201 779.544 275.755 780.4Q276.309 781.256 276.842 782.125Q277.375 782.995 277.887 783.877Q278.398 784.759 278.888 785.653C283.894 773.342 287 760.017 291.074 747.351C302.125 712.997 312.446 678.336 323.848 644.112C311.427 634.768 297.425 624.705 289.842 610.758C285.861 603.438 284.924 595.305 287.325 587.3C291.959 571.842 306.984 563.619 320.214 556.594C311.212 547.057 300.265 524.508 295.788 511.485C289.755 493.937 289.754 476.221 298.219 459.469C304.087 447.857 314.254 438.494 326.773 434.553C339.875 430.428 351.641 432.515 363.575 438.814C357.508 422.755 356.137 405.51 362.629 389.38C367.456 377.389 376.805 367.189 388.807 362.16C397.008 358.723 407.174 358.47 415.385 362.022C422.075 364.916 431.189 372.909 433.767 379.759C435.31 373.838 436.102 367.539 439.229 362.171C441.876 357.627 445.91 354.175 451.095 352.961C454.854 352.081 458.528 352.785 461.752 354.902C476.252 364.426 481.19 389.204 484.776 404.997C489.533 392.59 489.342 379.323 493.422 367.742C495.149 362.841 497.973 356.571 502.984 354.36C505.186 353.388 507.596 353.273 509.833 354.187C516.634 356.966 521.561 368.245 524.302 374.573C528.06 366.38 529.014 358.927 534.401 351.041C540.388 342.276 547.726 337.097 558.157 335.115ZM862.606 908.46C870.794 883.01 876.709 856 883.265 830.059C889.276 806.276 896.827 782.121 899.88 757.725C888.075 755.077 874.549 755.581 862.452 754.836Q825.213 752.207 787.893 751.276C775.617 750.935 763.321 751.071 751.042 750.889C742.552 750.763 723.568 748.868 715.927 751.343C713.525 753.832 712.187 770.571 709.46 772.461L708.341 772.073C707.072 768.033 709.686 759.046 710.916 754.898L712.971 747.55C719.493 746.913 726.158 747.119 732.711 747.108Q749.817 747.014 766.917 747.474Q818.28 748.524 869.547 751.833C877.955 752.362 895.653 752.293 902.79 754.949C904.226 757.053 903.069 760.974 902.626 763.304C898.536 784.812 892.967 805.813 887.653 827.023C880.821 854.29 874.044 881.459 866.126 908.445C868.308 908.456 870.504 908.525 872.684 908.462C874.726 898.21 877.408 888.128 879.864 877.973C886.898 848.889 894.842 820.155 902.579 791.264L913.583 750.887C916.984 738.006 919.91 725.147 924.748 712.686C906.435 710.368 887.449 710.757 869.011 709.724L716.332 702.481C714.497 708.166 713.618 714.403 712.371 720.265L705.861 750.586C704.283 758.11 702.203 765.521 700.578 773.034Q691.732 815.672 681.962 858.107Q678.674 872.702 675.636 887.351C674.31 893.712 673.244 900.348 671.243 906.531C692.063 906.295 712.854 906.936 733.669 907.061C761.951 907.23 790.244 906.969 818.517 907.359C833.204 907.562 847.921 908.578 862.606 908.46ZM435.771 614.189C443.737 620.844 453.546 625.042 463.485 627.763C467.204 628.78 471.224 629.426 474.774 630.937C475.676 639.947 477.212 649.133 477.707 658.151C469.397 660.414 460.684 660.894 452.392 663.185C450.748 678.491 454.002 692.389 463.783 704.461C474.748 717.992 493.374 726.788 510.57 728.363C524.324 729.622 539.532 727.228 551.292 719.69C565.926 710.884 578.523 697.583 582.732 680.524C584.227 674.463 584.38 668.397 583.676 662.212C575.894 660.631 553.582 656.393 546.772 658.137C545.766 658.394 544.755 658.62 543.752 658.892C542.801 654.255 541.168 632.414 542.83 629.859C547.464 626.998 553.421 625.968 558.448 623.77C567.868 619.652 576.197 614.233 584.586 608.38C584.119 601.228 581.958 594.021 579.745 587.222C578.703 584.022 579.519 580.99 579.009 577.772C578.24 572.929 575.934 568.344 575.286 563.431C573.266 548.123 579.203 528.086 583.038 513.13C568.882 511.56 541.626 505.981 532.422 494.587C531.89 493.929 531.433 493.263 530.998 492.539C530.857 488.824 530.187 485.463 532.572 482.353C533.939 481.567 534.785 481.424 536.325 481.893C541.563 483.49 548.731 489.506 554.289 492.19C556.907 485.573 556.785 482.191 562.803 477.296C563.03 472.278 563.682 469.286 566.074 464.853C562.95 463.593 559.681 463.279 556.367 462.839C551.651 469.954 545.425 474.376 536.998 476.08C530.263 477.441 523.724 475.56 518.149 471.723C510.328 466.34 503.824 457.507 500.385 448.701C499.663 446.852 498.952 441.978 497.663 440.806C494.441 456.32 487.644 469.5 474.118 478.388C466.661 483.288 458.735 485.774 449.873 486.343C446.3 486.572 442.674 486.52 439.141 487.135C440.935 492.704 442.366 496.456 440.25 502.184L440.434 502.588C444.388 499.743 453.021 492.097 457.952 492.649C459.03 492.77 459.886 493.331 460.307 494.344C461.654 497.589 459.309 502.448 457.688 505.214C453.733 511.96 448.077 515.421 440.658 517.219C436.358 518.262 431.929 518.54 427.643 519.539C435.306 535.208 439.123 553.232 439.258 570.613C439.286 574.182 439.203 577.799 438.71 581.338C438.404 583.536 437.253 586.904 437.379 588.989C437.448 590.146 438.493 590.445 439.418 590.749C440.159 590.993 440.938 591.161 441.697 591.344Q438.886 602.806 435.771 614.189ZM437.023 594.335C429.495 591.193 421.451 588.982 413.674 586.521L374.087 574.099C367.061 571.912 359.584 569.997 352.828 567.09Q327.806 642.319 304.358 718.053L288.283 768.412C286.023 775.658 283.519 782.924 281.631 790.271C290.499 806.384 292.874 829.217 287.796 846.868C287.024 849.554 286.034 852.162 285.023 854.766C299.928 867.335 307.435 875.54 328.575 873.856C337.093 873.177 345.827 870.274 353.181 865.946C363.96 858.818 372.518 850.311 377.928 838.396C383.61 825.88 385.961 811.231 389.242 797.901C396.143 769.865 402.469 741.779 408.918 713.644L428.053 631.545C430.884 619.578 434.339 607.559 436.79 595.521Q436.912 594.929 437.023 594.335ZM658.205 855.749C661.226 860.151 666.315 869.682 672.011 870.587C673.319 870.795 674.327 870.444 675.477 869.844C675.914 868.655 676.134 868.503 675.88 867.211L676.25 867.642C680.609 851.942 683.644 835.539 687.132 819.6L703.239 746.913C706.63 731.454 709.683 715.814 713.55 700.472C709.116 695.855 703.434 674.287 700.856 666.603C698.324 659.059 695.448 651.634 692.914 644.092C687.27 627.297 681.954 610.495 675.939 593.812C672.512 584.306 669.179 572.785 664.434 564.019C660.701 563.726 657.036 563.377 653.296 563.709C633.11 565.95 600.445 574.107 582.726 584.601Q606.102 682.479 633.647 779.268C639.547 800.446 644.714 821.627 652.47 842.267C654.137 846.704 655.643 851.743 658.205 855.749ZM212.338 903.724C237.271 899.194 257.865 890.654 272.796 869.161C284.394 852.466 289.354 832.969 285.716 812.817C281.975 792.094 268.423 771.881 251.131 759.987C237.821 750.831 221.672 746.176 205.68 745.031C202.232 744.784 197.912 744.462 194.498 745.123C194.369 745.148 194.247 745.196 194.122 745.233C173.038 747.229 153.882 756.893 140.265 773.186C126.776 789.325 118.234 813.651 120.207 834.731C122.02 854.107 129.795 870.952 144.979 883.356C162.909 898.003 188.531 906.29 211.744 903.808C211.943 903.787 212.14 903.752 212.338 903.724ZM359.085 566.265C366.327 567.918 373.503 570.489 380.603 572.698L414.569 583.183C421.036 585.186 427.44 587.787 434.111 589.023C436.669 567.297 436.157 546.854 426.41 526.692C425.309 523.981 424.262 521.359 423.575 518.507C427.253 511.063 433.76 506.087 438.115 499.113C437.403 494.076 436.25 490.16 434.079 485.568C433.862 485.605 433.645 485.64 433.429 485.679C426.359 486.961 414.657 492.959 409.419 497.738C407.382 499.598 405.673 501.985 404.127 504.264C403.126 505.739 402.083 507.987 400.435 508.76L400.885 508.649L399.273 508.435C398.692 506.043 400.274 503.054 401.481 501.059C405.903 493.756 421.644 484.697 429.963 482.972Q431.72 482.622 433.497 482.4C432.481 478.294 431.451 471.484 427.441 469.167C424.874 467.684 421.688 468.325 419.017 469.147C411.464 471.472 398.628 478.674 392.36 483.517C389.772 485.515 386.884 490.741 383.75 491.248C383.2 490.185 383.34 489.512 383.689 488.399C386.828 478.391 407.852 470.762 416.717 465.701C413.183 461.414 410.917 459.718 405.325 458.588C385.189 463.827 369.309 468.004 358.145 487.054C351.584 498.249 350.926 511.475 354.25 523.814C357.016 534.079 364.427 546.788 362.533 557.474C361.976 560.618 360.544 563.461 359.085 566.265ZM563.384 352.09L563.991 352.126C572.398 352.673 579.679 356.222 585.263 362.536C591.949 370.098 594.667 380.172 596.083 389.944C596.394 392.092 596.272 395.24 597.239 397.138L597.177 396.36L597.402 396.472C597.884 379.626 595.211 360.987 583.1 348.231C578.473 343.357 570.15 338.353 563.229 338.22C562.942 338.215 562.65 338.193 562.367 338.242C553.174 339.158 546.034 342.346 540.133 349.594C531.859 359.757 528.355 373.134 526.697 385.888C526.325 388.752 525.658 392.102 526.048 394.961C526.123 395.507 526.185 395.661 526.337 396.232L526.802 396.388C532.049 382.894 539.317 360.906 553.395 354.548C556.596 353.103 559.911 352.428 563.384 352.09ZM544.973 632.021C545.288 639.628 546.071 647.2 546.251 654.812C552.199 654.321 558.157 655.269 564.058 655.986C575.955 657.458 587.546 659.717 599.3 661.987C596.883 654.984 587.697 613.973 585.532 611.918C574.253 621.471 558.929 627.71 544.973 632.021ZM686.598 405.009C683.552 392.74 678.577 381.725 667.288 375.011C661.957 371.84 656.065 370.311 649.922 369.799C636.136 369.774 623.775 374.777 614.024 384.568C607.495 391.123 598.866 402.208 598.608 411.778C598.604 411.95 598.62 412.122 598.626 412.293C600.096 412.064 611.224 398.291 613.725 396.093C618.612 391.799 624.681 387.816 630.881 385.765C643.309 381.13 655.855 381.326 668.006 386.972C676.373 390.861 681.678 397.456 686.598 405.009ZM437.467 385.588C440.332 390.693 443.383 396.042 445.02 401.683C444.996 401.505 444.97 401.327 444.948 401.149C444.018 393.422 444.225 381.253 449.101 374.912C451.07 372.352 453.214 371.178 456.281 370.368L456.947 370.457C462.902 371.305 466.826 374.8 470.334 379.479C474.184 384.614 476.554 391.859 479.767 395.981C480.502 393.805 472.833 375.515 471.466 372.742C468.549 366.824 463.182 358.389 456.507 356.381C455.512 356.081 454.473 356.044 453.442 356.022C448.327 357.344 444.646 360.069 441.872 364.612C438.232 370.571 437.317 378.747 437.467 385.588ZM474.083 655.367C473.029 648.691 473.521 640.946 471.711 634.582C467.821 632.451 463.464 631.428 459.267 630.068C451.053 627.407 441.661 623.874 434.898 618.408C430.802 634.075 427.54 649.802 423.845 665.545C434.183 661.984 445.319 660.384 456.115 658.882C462.118 657.912 468.228 657.042 474.083 655.367ZM823.583 703.955C825.024 704.11 826.485 704.571 827.805 703.941C830.573 698.187 827.642 683.181 825.504 677.038C824.629 674.523 823.838 673.057 821.375 671.804C815.817 682.043 815.652 691.982 814.982 703.367C817.865 703.694 820.676 704 823.583 703.955ZM283.459 857.862C281.069 862.4 278.772 867.127 275.992 871.439C281.692 871.829 287.418 871.611 293.125 871.513L299.483 871.377C293.607 867.435 288.557 862.74 283.459 857.862ZM651.127 560.717C636.925 531.306 664.766 509.628 642.068 474.599C636.872 466.58 629.109 459.996 620.044 456.789C615.594 455.214 611.028 454.837 606.341 454.689C602.387 455.219 597.289 456.002 594.445 459.118C594.317 459.258 594.219 459.423 594.106 459.575L594.394 460.471C596.565 461.552 598.902 461.659 601.163 462.441C605.671 463.999 615.274 468.485 617.083 473.003C616.643 474.085 616.648 474.531 615.685 475.243C613.4 473.634 611.54 471.32 609.156 469.919C600.993 465.12 587.534 460.384 578.008 461.888C573.604 462.584 570.627 465.402 568.072 468.941C567.046 470.361 565.598 472.445 565.968 474.289C566.115 475.022 566.094 474.811 566.782 475.239C576.175 475.526 591.334 477.729 598.232 484.786C599.101 485.675 598.938 485.737 599.101 486.878L598.595 487.865C597.03 488.285 595.965 487.619 594.588 486.833C587.833 482.979 576.979 476.855 568.886 478.802C564.601 479.832 561.247 482.863 559.11 486.635C558.156 488.32 557.698 490.207 558.35 492.101C561.231 500.473 585.499 507.46 586.607 510.493C587.702 513.492 584.456 521.713 583.629 525.118C580.75 536.576 577.151 551.148 578.988 562.885C579.91 568.78 581.929 574.479 582.939 580.356C604.067 570.456 627.769 562.502 651.127 560.717ZM752.541 700.559L761.413 700.975C762.931 700.988 764.644 701.217 766.042 700.551C767.602 694.201 764.397 680.586 761.037 674.881C759.956 673.044 758.924 671.855 756.938 671.026C752.288 680.396 752.041 690.278 752.541 700.559ZM505.291 356.306C497.603 361.855 493.861 372.788 491.747 381.681C494.138 376.564 496.943 368.293 502.762 366.397C505.903 365.375 509.279 366.51 512.034 368.065C512.766 368.478 513.466 368.922 514.171 369.38C519.43 375.374 520.061 382.758 524.149 389.095C522.365 378.902 518.228 363.878 508.985 357.756C507.818 356.983 506.68 356.511 505.291 356.306ZM878.114 673.751C873.783 679.634 870.439 697.366 871.637 704.403C871.825 705.51 871.974 705.768 872.757 706.499C874.657 706.901 876.287 706.898 878.221 706.803C880.464 706.941 882.526 707.007 884.767 706.738C885.221 697.864 886.342 682.96 880.325 675.648C879.712 674.902 878.906 674.293 878.114 673.751ZM336.178 436.167C324.283 437.591 313.679 443.881 306.322 453.293C297.404 464.702 293.325 481.335 295.146 495.616C296.181 503.729 298.979 511.142 302.233 518.585C301.067 508.657 301.315 502.853 302.012 492.89C304.767 477.191 310.084 463.38 323.616 453.947C337.081 444.559 353.599 444.553 369.121 447.237C362.622 440.574 352.33 436.036 342.959 435.898C340.691 435.864 338.439 435.985 336.178 436.167ZM403.631 362.749C392.098 363.384 382.706 367.854 374.916 376.462C365.554 386.809 360.928 401.127 361.667 414.977C362.075 422.615 364.578 437.565 369.721 443.269L370.209 442.688L370.097 442.22C366.585 427.084 365.152 405.422 373.8 391.588C374.799 389.991 376.06 388.572 377.305 387.166C382.486 381.893 388.659 379.366 396.073 379.338C409.518 379.288 420.239 386.491 429.381 395.717C434.796 401.182 440.141 406.964 445.196 412.762C439.623 395.65 431.804 374.325 414.689 365.545C411.092 363.7 407.721 362.692 403.631 362.749ZM664.312 870.346L664.734 869.684C655.952 858.806 652.68 856.154 648.596 841.854C648.27 843.065 650.052 866.123 650.186 870.023Q657.247 870.281 664.312 870.346ZM351.717 871.022L357.375 871.142C371.573 871.056 385.769 871.572 399.961 870.894C399.043 862.976 399.514 854.736 399.332 846.758C398.954 830.148 398.525 813.61 397.672 797.01C397.49 793.459 397.954 786.988 396.568 783.8L396.319 784.494C394.111 790.774 392.927 797.601 391.489 804.096C385.235 832.354 379.843 856.716 351.717 871.022Z"/>
	<path d="M709.246 778.578C716.78 779.071 724.402 778.759 731.954 778.812Q755.417 779.118 778.881 779.039C797.691 779.105 816.745 780.275 835.564 781.02C845.905 781.429 856.246 782.649 866.545 783.672C871.212 784.135 876.575 784.194 881.106 785.384C882.4 785.723 883.208 786.114 884.134 787.117C884.958 791.547 860.124 877.733 856.932 890.162C856.327 892.112 855.641 894.03 854.957 895.953Q793.688 893.504 732.373 892.796C724.47 892.721 691.622 894.419 687.669 893.275C686.234 888.439 705.786 785.124 709.246 778.578ZM778.947 890.992C787.542 891.078 851.17 893.266 852.883 891.885C853.083 891.723 853.244 891.52 853.425 891.337L853.114 890.708L853.442 890.891C855.483 883.462 859.145 873.318 859.806 865.835C851.763 864.127 842.243 864.442 833.996 863.939C817.102 862.909 800.009 861.5 783.079 861.47C782.18 871.351 779.609 881.03 778.947 890.992ZM779.985 858.165C781.704 852.905 782.447 847.419 783.745 842.051C785.433 835.068 787.575 828.219 789.095 821.193Q767.445 820.216 745.779 819.727Q743.068 832.357 740.117 844.932C739.177 849.03 738.495 853.522 737.118 857.478C745.929 857.731 772.861 859.514 779.985 858.165ZM799.882 782.775Q785.678 782.009 771.453 782.074C766.497 782.108 760.588 783.041 755.744 782.295C752.484 793.492 749.411 804.995 746.92 816.391C754.924 816.704 783.9 818.978 789.465 817.639L790.042 816.793C793.502 805.535 797.24 794.257 799.882 782.775ZM696.079 858.477Q705.098 858.125 714.124 858.041C720.399 858.019 727.96 858.824 734.024 857.387C736.562 844.805 739.266 831.903 742.762 819.562C729.802 818.607 716.596 819.262 703.585 819.041C700.218 831.999 698.634 845.349 696.079 858.477ZM736.641 860.617C734.313 870.224 733.256 880.568 730.134 889.915C738.936 890.029 747.774 889.933 756.569 890.181C762.691 890.354 768.748 891.081 774.881 890.831L775.794 890.389C776.371 880.747 777.869 871.446 779.903 862.025C765.502 861.394 751.023 861.356 736.641 860.617ZM867.522 822.221C869.058 822.366 870.782 822.809 872.15 821.95C875.86 811.24 878.355 799.735 880.978 788.693C873.172 787.226 865.17 786.665 857.264 785.99C853.894 785.702 850.282 785.671 846.97 785.007C843.888 796.63 839.583 808.778 835.074 819.957C842.591 820.789 860.627 822.778 867.522 822.221ZM793.513 817.901C798.941 817.937 829.405 820.42 831.569 819.534L831.76 819.333C835.741 808.008 839.937 796.549 843.345 785.044C830.29 783.698 817.033 783.479 803.919 782.952C800.015 794.17 795.809 806.25 793.513 817.901ZM690.202 890.782C699.894 890.418 709.678 889.939 719.375 889.971L727.557 889.89C728.73 880.158 731.4 870.698 733.096 861.063Q718.218 860.826 703.343 861.224L695.123 862.176C694.403 871.48 691.973 881.584 690.202 890.782ZM713.326 782.258C712.302 782.557 711.92 782.381 711.394 783.371C708.33 789.132 706.021 808.223 703.716 816.004Q723.555 815.896 743.393 816.078C746.252 804.869 749.466 793.66 752.009 782.38C739.33 781.61 726.027 781.779 713.326 782.258ZM834.211 823.535C830.319 835.816 825.155 847.463 820.896 859.567C833.008 862.373 846.233 861.121 858.586 862.504L860.521 862.371C862.761 859.225 869.223 832.156 871.055 826.034C859.229 823.94 846.229 824.055 834.211 823.535Z"/>
	<path d="M781.151 765.23C784.682 764.893 788.449 765.358 792.01 765.294C806.951 765.027 821.715 765.182 836.648 765.608C845.716 765.867 854.749 766.307 863.81 766.738C867.991 766.937 872.295 766.767 876.44 767.31C878.865 767.627 881.162 768.2 883.36 769.288L883.318 770.35L884.032 769.977C880.655 771.398 833.623 768.733 825.898 768.532C816.448 767.693 806.971 768.206 797.506 768.273C782.812 768.378 768.13 768.323 753.45 769.171C749.521 769.398 727.166 771.124 725.585 770.517C724.871 770.243 724.821 769.759 724.503 769.132L725.092 768.122C729.425 765.894 772.672 765.464 781.151 765.23Z"/>
	<path d="M871.001 720.529C872.071 720.519 873.194 720.486 874.25 720.666C876.164 720.993 877.94 722.326 878.959 723.949C880.052 725.69 880.247 727.693 879.721 729.663C878.986 732.422 877.171 733.688 874.815 735.049C873.833 735.198 872.765 735.406 871.768 735.279C869.979 735.05 868.085 733.881 867.091 732.378C865.968 730.679 865.826 728.534 866.241 726.583C866.822 723.843 868.708 721.957 871.001 720.529Z"/>
	<path d="M747.913 715.506C749.082 715.434 750.348 715.36 751.485 715.703C753.597 716.34 755.456 718.162 756.392 720.123C757.225 721.867 757.372 723.913 756.682 725.73C755.784 728.091 754.094 729.036 751.876 729.981C749.416 729.96 747.046 729.714 745.233 727.905C743.873 726.549 743.192 724.828 743.318 722.904C743.548 719.407 745.375 717.658 747.913 715.506Z"/>
	<path d="M811.54 719.4C812.97 719.362 814.697 719.181 816.09 719.52C817.452 719.852 818.788 720.997 819.579 722.117C820.727 723.745 821.01 725.531 820.531 727.46C819.84 730.245 817.897 731.686 815.528 733.041C814.239 733.03 812.663 732.93 811.439 732.479C808.415 731.363 807.531 728.282 806.416 725.577C807.756 722.647 808.698 721.046 811.54 719.4Z"/>
	<path d="M545.884 516.662C547.243 516.865 548.698 517.088 549.939 517.711C551.78 518.635 553.109 520.281 553.768 522.214C554.409 524.095 554.314 526.065 553.39 527.839C552.089 530.337 550.23 531.62 547.618 532.481C545.327 532.568 543.246 532.618 541.439 530.99C539.729 529.45 538.79 527.238 538.641 524.966C538.494 522.738 539.214 520.435 540.737 518.776C542.28 517.097 543.726 516.833 545.884 516.662Z"/>
	<path d="M457.533 525.164C459.354 524.961 461.511 524.546 463.326 524.958C465.217 525.389 467.065 526.874 468.068 528.508C469.068 530.137 469.257 531.903 468.722 533.731C467.919 536.478 465.959 537.96 463.603 539.362C462.339 539.5 460.962 539.561 459.697 539.448C457.721 539.271 455.972 537.945 454.834 536.389C453.693 534.827 453.14 532.981 453.455 531.054C453.883 528.434 455.38 526.6 457.533 525.164Z"/>
	<path d="M505.692 517.625C507.664 518.195 508.27 518.888 509.201 520.603C512.997 527.595 517.63 537.877 515.088 545.89C514.2 548.688 512.381 551.316 509.634 552.533C505.992 554.148 502.729 553.307 499.205 551.984C499.089 551.889 498.966 551.803 498.859 551.699C497.795 550.677 496.968 549.427 496.999 547.967C500.27 546.842 505.33 550.967 508.859 548.673C519.478 541.77 504.644 526.698 505.629 518.097C505.647 517.94 505.671 517.783 505.692 517.625Z"/>
	<path d="M512.074 570.669C514.474 570.425 516.655 570.733 518.978 571.376C521.304 572.019 525.175 575.598 526.352 577.641L524.699 578.443C521.742 577.435 519.847 575.923 517.173 574.537C513.878 572.83 508.832 574.73 505.52 575.842C501.925 577.616 499.771 580.108 496.563 582.148C495.45 582.855 495.095 582.788 493.927 582.507L493.825 581.956C494.263 580.683 494.837 579.789 495.671 578.722C499.548 573.769 505.998 571.445 512.074 570.669Z"/>
	<path d="M196.815 753.693C197.417 753.584 197.544 753.55 198.242 753.493C217.131 751.944 237.272 759.517 251.434 771.817C266.135 784.584 275.091 803.493 276.381 822.918Q276.492 824.51 276.524 826.106Q276.555 827.702 276.507 829.297Q276.46 830.892 276.333 832.483Q276.206 834.074 276 835.657Q275.794 837.239 275.51 838.81Q275.225 840.38 274.863 841.935Q274.501 843.489 274.062 845.023Q273.623 846.558 273.109 848.068Q272.594 849.579 272.005 851.063Q271.416 852.546 270.754 853.998Q270.092 855.45 269.358 856.868Q268.625 858.285 267.822 859.664Q267.019 861.044 266.148 862.381Q265.278 863.719 264.342 865.012Q263.406 866.304 262.407 867.549Q261.408 868.794 260.348 869.987C247.594 884.414 228.287 892.046 209.374 893.151Q207.578 893.313 205.776 893.393Q203.974 893.472 202.17 893.468Q200.367 893.463 198.565 893.375Q196.764 893.288 194.968 893.117Q193.173 892.946 191.387 892.692Q189.601 892.439 187.829 892.103Q186.057 891.766 184.302 891.349Q182.548 890.931 180.814 890.433Q179.081 889.934 177.372 889.356Q175.664 888.778 173.984 888.122Q172.304 887.466 170.656 886.732Q169.008 885.999 167.396 885.19Q165.784 884.381 164.211 883.499Q162.638 882.616 161.108 881.662Q159.577 880.708 158.092 879.684Q156.608 878.66 155.172 877.568C140.861 866.563 133.373 851.356 131.198 833.611Q130.99 831.808 130.868 829.996Q130.747 828.185 130.714 826.37Q130.681 824.555 130.735 822.74Q130.79 820.926 130.932 819.116Q131.074 817.306 131.303 815.506Q131.533 813.705 131.849 811.917Q132.165 810.13 132.568 808.359Q132.97 806.589 133.458 804.84Q133.945 803.092 134.517 801.369Q135.088 799.646 135.742 797.952Q136.396 796.259 137.132 794.599Q137.867 792.939 138.681 791.317Q139.496 789.694 140.388 788.113Q141.28 786.532 142.248 784.996Q143.215 783.46 144.256 781.973Q145.297 780.485 146.408 779.05C158.869 763.237 177.342 755.911 196.815 753.693ZM204.803 892.375Q206.479 892.337 208.151 892.216Q209.824 892.096 211.488 891.893Q213.152 891.691 214.804 891.407Q216.457 891.124 218.093 890.759Q219.73 890.395 221.346 889.951Q222.963 889.507 224.556 888.984Q226.149 888.461 227.714 887.861Q229.28 887.26 230.814 886.584Q232.348 885.908 233.847 885.157Q235.346 884.406 236.806 883.583Q238.267 882.76 239.685 881.866Q241.104 880.972 242.477 880.01Q243.849 879.048 245.173 878.019Q246.498 876.991 247.77 875.899Q249.042 874.807 250.259 873.653Q251.476 872.5 252.634 871.289Q253.793 870.077 254.892 868.811Q255.99 867.544 257.025 866.225Q258.06 864.906 259.029 863.538Q259.997 862.169 260.898 860.755Q261.799 859.341 262.629 857.885Q263.459 856.428 264.217 854.933Q264.975 853.437 265.659 851.907Q266.342 850.376 266.95 848.813Q267.558 847.251 268.089 845.661Q268.619 844.07 269.071 842.456Q269.523 840.841 269.895 839.207Q270.267 837.572 270.559 835.921Q270.851 834.27 271.061 832.607Q271.271 830.943 271.4 829.272Q271.529 827.6 271.575 825.924Q271.622 824.248 271.586 822.572Q271.55 820.896 271.433 819.224Q271.315 817.551 271.115 815.886Q270.915 814.222 270.634 812.569Q270.353 810.916 269.992 809.279Q269.63 807.642 269.189 806.025Q268.747 804.407 268.227 802.813Q267.707 801.22 267.109 799.653Q266.511 798.087 265.837 796.552Q265.164 795.016 264.415 793.516Q263.667 792.016 262.846 790.554Q262.025 789.092 261.134 787.672Q260.242 786.252 259.282 784.878Q258.322 783.504 257.296 782.178Q256.269 780.852 255.179 779.578Q254.089 778.304 252.938 777.086Q251.787 775.867 250.577 774.706Q249.368 773.545 248.103 772.445Q246.838 771.344 245.521 770.307Q244.203 769.27 242.837 768.299Q241.47 767.328 240.057 766.425Q238.645 765.522 237.19 764.689Q235.734 763.857 234.24 763.096Q232.746 762.336 231.216 761.65Q229.686 760.964 228.125 760.353Q226.563 759.743 224.974 759.21Q223.384 758.677 221.771 758.222Q220.157 757.768 218.523 757.393Q216.889 757.018 215.238 756.724Q213.588 756.429 211.925 756.216Q210.262 756.003 208.59 755.872Q206.919 755.74 205.243 755.691Q203.567 755.642 201.891 755.675Q200.211 755.708 198.535 755.824Q196.859 755.939 195.191 756.137Q193.523 756.335 191.866 756.614Q190.209 756.893 188.568 757.254Q186.927 757.614 185.306 758.055Q183.685 758.495 182.087 759.015Q180.49 759.535 178.92 760.132Q177.349 760.73 175.811 761.404Q174.272 762.078 172.768 762.827Q171.264 763.576 169.798 764.397Q168.333 765.219 166.91 766.112Q165.487 767.004 164.109 767.966Q162.731 768.927 161.402 769.955Q160.074 770.983 158.797 772.075Q157.52 773.167 156.299 774.321Q155.077 775.474 153.914 776.686Q152.751 777.898 151.648 779.166Q150.546 780.434 149.507 781.754Q148.468 783.075 147.495 784.444Q146.523 785.814 145.618 787.23Q144.714 788.646 143.88 790.105Q143.047 791.563 142.286 793.061Q141.525 794.559 140.838 796.092Q140.152 797.625 139.542 799.191Q138.931 800.756 138.398 802.349Q137.866 803.943 137.412 805.56Q136.958 807.178 136.584 808.816Q136.211 810.454 135.918 812.108Q135.625 813.762 135.413 815.429Q135.202 817.096 135.073 818.771Q134.944 820.446 134.897 822.125Q134.85 823.804 134.886 825.484Q134.922 827.164 135.04 828.84Q135.158 830.515 135.359 832.183Q135.559 833.851 135.841 835.508Q136.123 837.164 136.486 838.804Q136.85 840.444 137.293 842.065Q137.736 843.685 138.258 845.282Q138.781 846.879 139.381 848.448Q139.981 850.017 140.657 851.555Q141.334 853.093 142.085 854.595Q142.836 856.098 143.66 857.562Q144.484 859.026 145.379 860.448Q146.274 861.87 147.238 863.246Q148.202 864.622 149.232 865.949Q150.262 867.276 151.356 868.551Q152.45 869.826 153.606 871.045Q154.761 872.265 155.975 873.426Q157.189 874.588 158.459 875.688Q159.728 876.789 161.05 877.825Q162.372 878.862 163.743 879.832Q165.115 880.803 166.532 881.705Q167.949 882.607 169.409 883.438Q170.869 884.269 172.368 885.028Q173.867 885.786 175.402 886.47Q176.936 887.154 178.503 887.762Q180.069 888.37 181.663 888.9Q183.257 889.43 184.875 889.881Q186.494 890.333 188.132 890.704Q189.771 891.075 191.425 891.365Q193.08 891.655 194.747 891.864Q196.414 892.073 198.089 892.199Q199.765 892.325 201.444 892.37Q203.123 892.414 204.803 892.375Z"/>
	<path d="M210.775 803.708C211.942 803.982 211.838 803.773 212.654 804.8C212.461 809.718 205.232 820.111 202.496 824.894C203.764 827.174 205.67 829.899 206.363 832.394C206.717 833.671 207.123 834.89 206.426 836.037C206.267 836.009 206.102 836.003 205.949 835.953C202.586 834.87 200.037 828.838 198.529 825.928C193.892 826.001 189.208 826.004 184.701 827.2C184.481 827.258 184.262 827.322 184.043 827.383L183.229 826.898C183.229 825.561 183.287 825.481 184.058 824.381C188.532 822.085 195.11 822.275 200.096 821.867C203.109 815.517 206.851 809.53 210.775 803.708Z"/>
	<path d="M198.803 765.773L200.729 766.567C202.981 769.669 201.718 777.178 201.254 780.82C200.444 780.681 199.779 780.453 199.02 780.141C198.661 779.56 198.59 779.509 198.354 778.75C197.397 775.667 197.396 768.575 198.803 765.773Z"/>
	<path d="M232.194 772.71C233.211 773.053 233.365 773.258 234.067 774.021C234.648 777.204 230.973 782.057 229.349 784.824C229.12 784.724 228.883 784.642 228.663 784.525C228.021 784.183 227.335 783.905 227.187 783.149C226.572 780.018 230.526 775.252 232.194 772.71Z"/>
	<path d="M251.248 822.534C254.949 822.405 258.91 821.846 262.462 823.052C263.543 824.227 263.328 824.354 263.296 825.979C260.206 826.092 256.407 826.618 253.372 825.98C252.008 825.693 251.596 825.407 250.828 824.273L251.248 822.534Z"/>
	<path d="M229.215 859.2C229.359 859.253 229.504 859.304 229.648 859.359C232.064 860.278 234.271 864.04 235.193 866.343C235.895 868.097 235.573 868.552 234.908 870.203C233.815 870.179 234.106 870.305 233.272 869.934C231.748 869.257 229.578 864.152 228.947 862.49C228.379 860.996 228.555 860.646 229.215 859.2Z"/>
	<path d="M244.558 845.192C247.383 845.8 251.759 847.062 253.691 849.322C254.644 850.436 254.57 851.31 254.527 852.677C251.622 852.576 249.361 851.607 247.07 849.779C245.187 848.276 244.792 847.521 244.558 845.192Z"/>
	<path d="M173.532 858.176C174.306 858.407 175.008 858.72 175.748 859.042L176.131 860.033C175.414 863.104 173.413 865.993 171.986 868.821C171.114 869.1 170.727 869.083 169.845 868.846L169.393 867.792C169.877 864.445 171.956 861.153 173.532 858.176Z"/>
	<path d="M253.945 795.822C254.626 796.17 254.884 796.471 255.386 797.03L255.189 798.278C253.182 800.877 250.126 802.216 247.212 803.556L245.792 803.174L245.252 802.223C246.235 799.501 251.56 797.202 253.945 795.822Z"/>
	<path d="M153.575 793.874C156.37 794.365 159.777 795.868 161.834 797.828C163.208 799.137 163.17 800.05 163.215 801.822C160.547 800.785 155.628 799.076 154.005 796.698C153.188 795.502 153.314 795.197 153.575 793.874Z"/>
	<path d="M147.592 819.826C150.31 819.522 151.786 819.326 154.064 821.064L154.101 822.025C153.18 822.964 152.259 823.153 151.037 823.486C149.454 823.541 147.47 823.768 145.945 823.305C144.966 823.007 144.241 822.475 143.726 821.604L144.018 820.896C145.162 820.175 146.287 820.043 147.592 819.826Z"/>
	<path d="M200.414 867.069C201.6 867.605 202.078 867.636 202.462 868.999C203.3 871.967 203.027 878.093 201.248 880.567C201.033 880.332 200.408 879.695 200.221 879.354C198.888 876.931 199.458 869.609 200.414 867.069Z"/>
	<path d="M157.517 839.647C158.048 840.29 157.973 840.716 158.091 841.525C156.659 844.146 151.813 844.969 149.123 845.774C148.552 844.918 148.487 844.781 148.373 843.697C150.189 840.857 154.458 840.432 157.517 839.647Z"/>
	<path d="M174.52 775.331C174.662 775.348 174.804 775.356 174.944 775.381C176.847 775.725 177.878 776.692 178.987 778.192C180.466 780.192 181.524 781.998 181.115 784.488C178.487 783.705 176.794 782.27 175.517 779.807C174.708 778.247 174.054 777.022 174.52 775.331Z"/>
	<path d="M497.119 109.899C498.812 109.829 499.529 109.823 500.813 110.901C501.547 112.497 501.729 113.912 501.699 115.673C501.462 129.23 500.184 142.891 499.572 156.449C499.249 163.611 499.513 170.825 499.31 177.999C498.856 194.03 498.243 210.018 498.611 226.064C498.814 234.903 501.886 263.682 499.402 270.833C497.776 270.932 497.506 271.195 496.211 270.118C493.683 264.036 494.724 255.606 494.346 249.071C494.002 243.12 493.309 237.19 493.054 231.232C491.798 201.948 493.039 170.638 494.194 141.319C494.493 133.728 494.096 119.933 495.237 113.04C495.465 111.666 496.219 110.878 497.119 109.899Z"/>
	<path d="M255.066 250.289L257.483 250.535C260.258 252.002 265.525 264.84 267.237 268.227C276.95 287.434 289.617 305.211 299.188 324.524C300.616 327.405 300.582 328.787 299.567 331.811C298.681 331.808 297.853 331.693 296.975 331.579C292.453 327.812 259.687 266.819 255.659 256.915C254.722 254.61 254.064 252.682 255.066 250.289Z"/>
	<path d="M723.029 236.719C723.859 236.875 724.69 237.153 725.507 237.377C726.395 238.241 726.576 238.282 726.56 239.585C726.467 247.462 712.197 292.315 708.154 300.549C707.641 301.592 706.845 302.454 706.045 303.283C705.552 303.245 704.5 303.248 704.004 303.044C703.476 302.826 702.886 302.469 702.764 301.874C702.196 299.108 706.668 288.926 707.639 285.752L716.425 256.277C717.997 250.832 719.31 245.05 721.278 239.745C721.691 238.632 722.326 237.667 723.029 236.719Z"/>
	<path d="M355.972 189.183C356.646 189.58 357.032 189.855 357.493 190.523C359.16 192.943 359.516 199.245 360.085 202.254C361.174 208.016 362.395 213.825 363.956 219.479C364.863 222.768 366.373 226.183 366.995 229.511C367.15 230.342 367.058 231.008 366.964 231.837C365.295 231.243 364.659 230.937 363.682 229.432C359.07 222.335 354.205 196.945 355.972 189.183Z"/>
	<path d="M173.642 440.252C176.018 441.531 190.889 465.07 193.633 469.228C194.605 470.701 194.54 471.3 194.177 473.011C194.064 473.003 192.94 472.943 192.667 472.858C189.261 471.798 180.816 456.977 178.616 453.383C176.318 449.629 172.554 444.774 173.642 440.252Z"/>
	<path d="M149.153 542.169C149.981 542.24 150.767 542.341 151.452 542.863C153.833 544.679 155.968 547.629 158.277 549.675C163.011 553.872 168.754 557.675 173.012 562.339C174.106 563.538 174.209 564.368 174.173 565.942C173.942 565.923 173.71 565.922 173.482 565.885C168.566 565.071 154.192 551.955 150.886 547.786C149.321 545.813 148.853 544.68 149.153 542.169Z"/>
	<path d="M627.196 197.738C627.734 198.091 628.147 198.516 628.609 198.96C628.732 202.84 624.985 207.809 623.85 211.697C622.028 217.936 623.134 230.909 621.118 234.787C621.01 234.712 620.89 234.651 620.792 234.563C619.135 233.076 619.057 230.336 618.912 228.212C618.307 219.318 621.305 204.53 627.196 197.738Z"/>
	<path d="M789.457 334.237C790.747 334.796 790.978 334.775 791.668 335.972C791.022 341.723 789.023 361.657 787.43 365.877L785.73 365.253C785.454 364.765 785.318 364.6 785.215 363.975C784.521 359.759 787.377 337.667 789.457 334.237Z"/>
	<path d="M206.231 346.913C212.324 349.591 218.122 359.257 221.294 364.893C222.463 366.97 222.663 367.743 221.995 370.106C221.184 369.797 220.481 369.517 219.843 368.907C217.373 366.548 207.676 353.205 206.103 349.968C205.434 348.591 205.73 348.259 206.231 346.913Z"/>
	<path d="M825.794 446.157C827.153 446.727 827.185 446.598 827.75 447.938C826.828 454.511 818.681 463.028 814.327 467.809C813.156 467.412 813.029 467.455 812.358 466.439C812.529 462.497 823.073 449.807 825.794 446.157Z"/>
	<path d="M855.897 530.354C856.979 531.25 857.251 531.215 857.426 532.584C854.831 537.412 847.645 541.583 843.303 544.966C842.18 544.493 842.06 544.363 841.345 543.369C842.244 539.778 852.531 532.663 855.897 530.354Z"/>
</svg>
