<?xml version="1.0" encoding="utf-8" ?>
<svg xmlns="http://www.w3.org/2000/svg" xmlns:xlink="http://www.w3.org/1999/xlink" width="1024" height="1024">
	<path fill="#010101" d="M417.53 362.191C424.354 339.671 437.642 317.343 458.985 305.897C471.547 299.16 484.846 297.487 498.513 301.672C512.01 305.804 521.931 314.099 531.426 324.193C546.469 318.62 562.488 319.263 577.112 325.967C590.193 331.962 600.997 342.72 605.93 356.379C611.104 370.709 608.535 380.767 603.414 394.417C613.088 406.847 618.177 415.807 623.814 430.564L773.895 430.691C783.945 430.712 822.337 429.648 828.774 431.532C831.174 438.664 781.473 637.087 773.23 653.797C767.72 653.498 762.209 653.501 756.693 653.471C755.35 661.245 753.453 668.017 748.857 674.546C780.637 673.124 812.645 674.083 844.461 673.749Q856.708 673.589 868.952 673.301C872.716 673.211 877.163 672.442 880.809 673.17C882.914 677.222 882.741 701.182 881.383 705.812C881.206 706.414 880.982 706.768 880.542 707.208C876.246 708.26 870.959 707.625 866.527 707.616C859.533 707.603 821.077 706.8 818.182 708.104C818.97 712.658 818.896 717.724 819.123 722.353C819.788 735.943 819.8 749.564 820.107 763.165Q820.974 805.886 821.026 848.616C821.055 860.157 821.62 871.906 821.285 883.418C821.241 884.895 821.101 886.412 820.446 887.751C819.227 887.522 818.568 887.766 817.882 886.586C817.063 885.175 817.23 881.912 817.185 880.241C816.674 861.468 817.085 842.529 817.052 823.739C817.016 803.001 816.548 782.319 816.205 761.587Q815.979 744.97 815.249 728.367C815.003 722.489 814.329 716.435 814.449 710.566C814.47 709.525 814.68 708.841 815.1 707.906C808.485 707.412 801.651 707.754 795.011 707.773Q776.507 707.876 758.003 707.791Q719.648 707.322 681.294 707.851C673.107 708.032 664.74 707.846 656.589 708.446Q657.727 714.948 658.982 721.429L659.799 721.523C677.726 723.493 698.949 722.39 717.152 721.938Q742.602 721.143 768.053 721.929C777.884 722.147 788.888 721.724 798.517 723.698C800.727 724.151 802.704 724.646 804.272 726.36C805.373 727.564 805.9 729.419 806.134 730.988C807.672 741.311 807.532 752.408 807.887 762.87Q809.048 795.049 809.148 827.249C809.273 842.436 810.897 859.279 808.987 874.275C808.661 876.834 808.149 879.776 806.696 881.93C797.383 886.891 676.934 885.554 656.177 885.642C651.066 885.664 633.937 886.943 630.37 886.025C629.202 885.724 629.125 885.689 628.45 884.7C628.773 883.701 628.758 883.226 629.839 882.817C632.786 881.704 657.461 881.938 662.256 881.927C681.356 881.881 794.587 883.351 803.611 878.337C805.988 873.591 805.602 866.072 805.754 860.828C806.182 846.08 805.283 831.14 805.071 816.38C804.748 793.842 804.583 771.303 803.42 748.785C803.14 743.364 803.574 736.415 802.009 731.288C801.652 730.12 801.195 729.406 800.038 728.898C787.493 723.396 715.421 726.301 697.238 726.51Q678.667 726.76 660.115 725.872C662.085 739.944 665.253 754.001 667.9 767.965C671.515 787.031 674.854 806.259 678.735 825.261C674.158 826.88 669.56 828.147 664.865 829.354C663.177 844.745 654.377 856.942 642.45 866.436C633.059 873.911 617.477 883.21 605.638 885.533C595.722 887.478 576.303 886.178 565.562 886.129L489.862 886.071Q464.92 886.045 439.979 886.35C430.009 886.475 419.278 887.387 409.384 886.16C391.491 883.941 373.195 873.746 362.274 859.404C355.349 850.308 352.864 841.97 353.024 830.661C347.799 828.565 342.644 826.35 337.774 823.507C338.174 814.856 340.516 805.915 342.096 797.388L350.129 753.487C351.719 745.052 353.832 736.471 354.865 727.961Q309.703 728.037 264.547 728.82C246.089 729.023 227.534 728.857 209.092 729.593C208.312 734.745 208.532 740.119 208.466 745.324L208.094 770.428C207.739 788.526 206.97 806.587 206.882 824.695C206.788 844.077 207.387 863.552 206.89 882.92Q265.601 882.186 324.316 882.142L358.263 882.148C363.559 882.15 369.089 881.758 374.36 882.13C375.999 882.246 377.308 882.69 378.754 883.439L379.295 884.334C378.285 885.567 377.047 885.808 375.482 885.964C366.745 886.833 355.692 886.002 346.704 886.051Q310.559 886.309 274.414 886.077L225.554 886.56C218.813 886.583 210.802 887.406 204.209 885.95L204.289 885.17L203.7 885.783C202.968 884.516 203.013 883.39 202.97 881.943C202.016 849.761 203.633 817.279 203.978 785.084Q204.17 765.122 204.658 745.164C204.784 739.543 204.094 732.311 205.544 726.971C205.697 726.409 205.651 726.564 206.31 726.262C208.881 725.083 342.812 722.813 356.128 723.912C357.066 718.787 357.916 713.626 359.082 708.548C338.746 709.195 318.434 709.03 298.097 709.3L199.701 711.152C199.352 726.919 199.92 742.76 200.082 758.533Q200.228 792.019 200.78 825.5L201.456 865.238C201.497 870.571 201.814 875.975 201.58 881.301C201.49 883.345 201.297 885.063 200.275 886.851L199.304 887.17C197.653 885.758 197.417 883.671 197.227 881.581C196.755 876.388 197.117 870.897 197.137 865.674L197.021 840.043L195.989 765.52C195.9 747.581 196.719 729.145 195.496 711.271C190.131 711.535 184.812 711.603 179.443 711.562L181.162 835.738L181.577 866.199C181.662 871.248 182.066 876.352 181.943 881.396C181.9 883.194 181.696 884.882 181.058 886.565L180.496 887.051C179.12 886.154 178.561 884.698 178.185 883.101C177.153 878.717 177.97 857.46 177.812 851.175L175.458 711.724C163.532 711.807 146.707 713.349 135.44 711.839C134.612 707.257 132.394 682.122 134.312 678.819C140.648 677.582 147.376 677.92 153.811 677.878L182.967 677.795L274.333 677.033C268.594 669.329 265.861 661.151 265.959 651.545C257.348 651.02 248.633 651.216 240.004 651.224C236.002 651.228 231.689 651.622 227.747 650.975C224.66 645.753 219.236 617.692 217.378 609.98Q202.896 551.141 189.22 492.111C187.734 485.897 174.207 434.175 174.879 431.592C174.923 431.425 175.005 431.269 175.068 431.108C194.371 429.576 214.722 430.705 234.158 430.79L329.968 430.836C333.83 430.842 365.804 430.341 367.202 430.698C367.523 430.78 367.792 431 368.087 431.151C368.297 431.943 368.519 432.101 368.118 432.895C367.664 433.794 367.086 434.338 366.144 434.728C364.125 435.564 344.775 434.649 340.982 434.642L233.184 434.628L199.904 434.592C193.127 434.585 186.145 434.234 179.405 434.924L210.45 564.293C217.161 591.915 224.573 619.549 230.468 647.35Q248.362 647.26 266.254 647.523C267.355 642.633 268.622 637.945 270.185 633.179C261.747 633.059 253.319 633.41 244.882 633.446C235.635 599.079 228.226 564.176 219.725 529.609C217.027 518.636 199.935 455.016 200.288 450.446C200.872 449.459 200.877 449.236 202.069 448.982C206.835 447.966 213.055 448.682 217.994 448.692L254.12 448.844L376.01 449.028C375.823 421.744 378.528 396.411 398.587 375.853C404.122 370.18 410.64 366.004 417.53 362.191ZM362.686 689.369Q367.015 670.222 370.742 650.948C371.871 645.317 372.611 639.092 374.157 633.616C374.587 632.094 375.067 631.021 376.055 629.789C377.118 629.323 377.056 629.308 378.149 629.687C378.762 631.639 378.432 633.609 378.071 635.586C376.758 642.767 374.891 649.859 373.431 657.013L361.373 716.416C354.356 751.319 348.18 786.355 341.544 821.328C363.637 831.436 386.992 834.519 411.003 836.102L409.947 708.598C409.89 693.85 408.715 678.707 409.448 663.996C409.506 662.834 409.678 661.449 410.302 660.43C410.542 660.038 410.983 659.394 411.372 659.102C415.206 656.224 507.2 656.972 519.125 656.588Q550.396 656.276 581.664 656.816C589.127 656.933 597.021 656.182 604.412 656.96C606.035 663.541 605.016 685.498 605.004 694.141Q605.025 738.496 604.471 782.848C604.272 795.465 603.97 808.037 604.004 820.66C604.018 826.243 603.773 831.968 604.275 837.525C614.326 834.937 625.097 834.016 635.349 832.328Q655.135 828.988 674.258 822.909C671.809 811.165 669.92 799.29 667.627 787.511L647.597 683.041Q644.243 665.25 640.6 647.516C639.69 642.988 637.819 636.806 637.561 632.337C637.503 631.329 637.628 630.721 638.139 629.86C638.245 629.681 638.376 629.519 638.495 629.349L639.326 629.261C640.502 630.567 641.028 631.82 641.545 633.487C643.694 640.421 644.683 648.116 646.103 655.252C648.46 667.09 650.994 678.901 653.23 690.761C680.947 689.224 722.71 697.692 743.196 674.488Q743.789 673.828 744.348 673.14Q744.907 672.451 745.431 671.735Q745.954 671.02 746.441 670.278Q746.928 669.537 747.376 668.772Q747.825 668.007 748.235 667.22Q748.644 666.433 749.014 665.627Q749.383 664.821 749.711 663.997Q750.04 663.173 750.326 662.333Q750.612 661.494 750.855 660.641Q751.099 659.788 751.299 658.924Q751.499 658.06 751.656 657.187Q751.812 656.314 751.924 655.434Q752.036 654.555 752.103 653.67Q752.171 652.786 752.194 651.899Q752.217 651.013 752.195 650.126Q752.173 649.239 752.106 648.355C749.983 621.059 718.856 586.886 698.472 569.677C654.546 532.593 592.442 501.825 534.994 495.206C525.359 494.096 514.805 493.225 505.139 494.159C504.978 494.174 504.819 494.206 504.659 494.229C491.722 494.8 478.552 495.994 465.834 498.487C410.303 509.375 345.329 542.411 306.941 584.462C291.932 600.904 268.914 631.41 269.952 654.504C270.374 663.897 274.339 672.411 281.355 678.668C295.566 691.343 318.865 692.823 336.911 691.624C345.518 691.053 354.079 689.931 362.686 689.369ZM368.433 531.652C380.986 524.329 394.163 518.307 407.473 512.499C410.581 511.142 419.385 508.388 421.031 505.97C419.266 503.648 412.091 502.32 409.261 500.978C391.271 492.442 378.609 473.108 376.82 453.372C372.654 453.258 368.504 453.174 364.336 453.255C363.112 453.35 362.523 453.135 361.62 454.044Q355.596 476.409 349.81 498.836C347.071 509.461 343.806 520.176 342.68 531.115C345.198 535.261 348.152 538.458 352.285 541.087L363.963 533.933C365.547 527.069 376.307 487.068 379.563 483.268L380.567 483.502L379.928 482.947L380.969 482.502C381.8 483.205 381.812 483.27 381.925 484.319C382.445 489.177 379.449 495.797 377.914 500.383C374.784 510.751 372.055 521.457 368.433 531.652ZM138.633 708.103L289.375 705.457C312.876 704.553 336.443 705.521 359.921 704.544Q361.074 699.008 362.34 693.498C337.45 696.618 301.389 699.885 280.455 683.662Q278.779 682.38 277.18 681.002L208.916 681.253Q185.771 681.64 162.623 681.747C154.326 681.805 145.86 681.516 137.584 682.025C138.179 690.705 138.166 699.414 138.633 708.103ZM600.755 508.032C612.139 511.635 624.246 517.458 634.608 523.366L636.964 518.603C643.967 504.514 650.354 490.089 656.923 475.793C660.295 468.454 664.232 461.13 667.229 453.657L641.282 453.415C636.276 453.371 631.077 453.048 626.099 453.488C624.385 477.154 617.569 491.413 600.755 508.032ZM658.453 535.821C659.167 534.098 659.84 532.345 660.608 530.647Q678.897 492.011 697.784 453.665Q684.63 453.413 671.473 453.46C667.545 464.083 662.059 474.534 657.288 484.832C651.1 498.189 645.166 512.025 638.331 525.048C645.157 528.469 651.766 532.148 658.453 535.821ZM480.447 492.551C489.323 491.175 498.06 490.498 507.024 490.079C515.655 489.975 524.168 490.351 532.776 490.933C533.075 484.263 532.94 477.588 528.132 472.358C523.601 467.429 515.705 465.186 509.135 465.083C507.683 465.061 506.224 465.109 504.773 465.166C497.187 466.455 489.109 468.578 484.447 475.278C480.841 480.459 480.676 486.494 480.447 492.551ZM569.105 486.773C558.789 488.667 546.812 488.915 536.694 485.866L537.174 491.145C548.933 493.209 560.808 495.309 572.305 498.562L572.38 498.342C572.643 498.407 572.903 498.491 573.17 498.536C573.363 498.569 573.56 498.564 573.755 498.578L574.054 498.287C572.591 494.396 571.053 490.45 569.105 486.773ZM578.407 500.27C584.093 502.165 589.78 504.037 595.383 506.167L596.507 506.401C597.237 504.516 595.534 501.523 594.74 499.737C592.213 494.051 589.054 489.268 583.048 486.803C580.694 485.837 578.364 485.666 575.85 485.648L573.806 486.204C573.241 488.818 577.446 496.225 578.247 499.621L578.407 500.27ZM448.797 484.15C441.793 485.118 435.799 488.463 431.437 494.126C428.764 497.596 427.01 501.506 425.283 505.503C433.58 502.972 442.062 500.793 450.275 498.032L450.872 497.51C450.993 495.499 450.856 493.095 451.835 491.298L452.998 490.817C453.674 491.11 454.034 491.058 454.318 491.812C454.901 493.358 454.674 495.406 454.663 497.046C461.029 495.547 467.381 494.049 473.806 492.824C467.755 491.011 453.025 484.06 448.797 484.15ZM871.178 677.216C847.82 678.302 824.239 677.822 800.858 677.864C782.702 677.896 764.398 678.596 746.261 677.912C720.961 701.258 685.504 693.927 654.071 694.77Q654.897 699.688 655.806 704.592L663.125 704.452C700.713 703.366 738.293 703.999 775.885 703.81C809.981 703.639 844.267 702.586 878.351 703.465Q878.305 690.438 877.972 677.416C875.724 677.312 873.425 677.101 871.178 677.216ZM626.157 449.412L737.819 449.912L773.903 449.849C780.428 449.844 787.226 449.497 793.717 450.162C795.689 450.364 797.323 450.918 798.769 452.312C800.629 454.105 800.954 455.928 800.892 458.399C800.68 466.758 797.169 476.225 795.084 484.33L784.42 526.333Q776.988 556.726 769.88 587.198C767.313 598.115 765.059 609.182 761.992 619.968C761.103 623.094 759.956 627.763 757.445 629.951C755.901 631.296 753.886 631.8 751.97 632.391C754.045 637.974 755.325 643.622 756.386 649.472C759.451 649.513 768.69 650.599 770.948 648.69L771.61 646.868Q791.814 578.179 808.212 508.483C814.052 483.979 820.434 459.315 825.202 434.585C803.155 433.776 781.077 434.028 759.019 434.032L664.227 434.083C651.043 434.102 637.79 434.543 624.613 434.251C624.982 439.361 626.151 444.252 626.157 449.412ZM555.326 660.225C542.757 660.863 530.047 660.499 517.459 660.546L453.249 661.037C440.061 661.18 426.525 660.864 413.402 662.193C412.512 671.722 413.025 681.559 413.171 691.12L413.739 732.054L414.733 820.269C415.013 841.133 415.608 862.045 415.516 882.907C431.031 882.484 446.6 882.709 462.125 882.533L599.745 882.111C600.154 873.54 599.888 864.85 599.963 856.264L600.46 791.887Q601.287 750.102 601.172 708.308C601.249 692.487 601.908 676.376 601.073 660.58C586.082 659.548 570.353 659.593 555.326 660.225Z"/>
	<path fill="#010101" d="M382.925 495.805C387.329 496.283 396.169 500.758 398.942 504.25C399.556 505.023 399.106 505.84 398.957 506.748C395.486 506.929 391.001 504.07 388.17 502.112C385.486 500.255 383.557 499.146 382.925 495.805Z"/>
	<path fill="#010101" d="M779.138 166.209Q782.792 166.042 786.446 166.208Q790.1 166.374 793.724 166.872Q797.347 167.371 800.911 168.197Q804.474 169.023 807.947 170.171C826.623 176.204 841.762 187.133 850.763 204.833C856.847 216.796 859.821 230.335 860.168 243.711C860.619 261.098 857.204 277.815 853.059 294.587C844.462 329.371 831.247 362.241 820.115 396.208C826.325 390.799 833.343 386.09 841.183 383.412C852.659 379.493 867.336 379.767 878.281 385.219C889.101 390.608 896.524 400.745 900.234 412.084C913.807 453.573 870.895 504.915 849.226 536.974C843.4 545.592 838.326 554.408 833.512 563.61C832.355 565.822 830.704 569.392 828.194 570.189C825.535 567.171 831.71 558.334 833.427 555.458C838.455 547.04 843.201 538.506 848.717 530.386C867.639 502.532 900.999 461.687 898.895 426.148C898.226 414.861 893.277 401.703 884.612 394.186C875.807 386.548 864.551 383.943 853.151 384.76C843.277 386.536 834.295 390.323 826.195 396.279C823.66 398.143 821.241 400.661 818.619 402.308C817.485 403.02 816.863 403.108 815.583 402.853C815.088 402.16 814.837 402.02 814.785 401.128C814.539 396.922 821.913 378.056 823.671 373.167C836.251 338.18 855.72 286.703 856.471 249.933Q856.603 245.528 856.323 241.13Q856.043 236.733 855.354 232.38Q854.665 228.028 853.574 223.758Q852.482 219.489 850.997 215.34C844.751 198.059 832.616 185.268 816.009 177.554C795.381 167.972 772.528 168.19 751.338 175.967C694.804 196.715 655.94 260.033 631.852 311.853C630.727 314.274 629.124 318.003 626.483 318.965L625.924 318.282C625.806 311.711 630.528 304.133 633.387 298.342C646.757 271.256 662.831 244.894 682.672 222.041C707.568 193.365 740.064 168.947 779.138 166.209Z"/>
	<path fill="#010101" d="M254.61 186.2C259.394 185.731 264.546 185.784 269.327 186.226C296.577 188.745 316.109 207.737 332.73 227.843C350.065 248.812 363.197 273.112 373.633 298.148C375.329 302.218 378.855 309.124 378.446 313.461C377.693 314.399 377.767 314.36 376.575 314.511C375.567 313.933 375.092 313.231 374.613 312.2C373.289 309.348 372.649 306.144 371.429 303.221C366.952 292.492 362.203 281.805 356.673 271.573C340.876 242.34 314.158 202.434 280.64 192.659C262.981 187.509 240.147 189.907 224.06 198.879C202.673 210.808 189.884 236.239 183.613 258.921C173.471 295.603 187.837 335.971 203.578 369.157C205.321 372.832 207.797 376.133 209.507 379.742C210.097 380.986 209.883 381.664 209.505 382.93C207.701 383.763 195.437 376.037 192.4 374.832C189.198 373.562 185.94 372.812 182.514 372.47Q181.201 372.344 179.882 372.282Q178.564 372.221 177.245 372.224Q175.925 372.228 174.608 372.297Q173.29 372.365 171.977 372.499Q170.664 372.632 169.36 372.83Q168.055 373.028 166.762 373.29Q165.469 373.552 164.19 373.877Q162.911 374.202 161.65 374.59Q160.388 374.978 159.148 375.427Q157.907 375.877 156.69 376.387Q155.473 376.897 154.283 377.467Q153.093 378.036 151.932 378.663Q150.771 379.291 149.643 379.975Q148.514 380.658 147.421 381.397Q146.327 382.135 145.271 382.927Q144.215 383.718 143.2 384.561Q141.314 386.209 139.59 388.026Q137.867 389.844 136.321 391.814Q134.775 393.784 133.419 395.891Q132.064 397.997 130.912 400.221C112.735 434.495 141.921 471.142 157.11 500.619C166.52 518.88 174.774 537.235 180.841 556.904C181.64 559.494 182.971 562.377 181.625 564.929L180.379 565.214L180.615 564.614L179.953 565.109C179.049 564.579 178.865 564.42 178.418 563.427C176.823 559.883 175.988 555.796 174.858 552.069C173.489 547.555 171.856 543.125 170.252 538.69C164.536 522.895 156.372 507.246 148.111 492.636C141.157 480.338 133.773 468.331 128.373 455.234C121.162 437.743 117.979 419.754 125.6 401.784Q126.125 400.524 126.714 399.292Q127.302 398.06 127.952 396.86Q128.602 395.66 129.312 394.494Q130.022 393.328 130.791 392.2Q131.559 391.071 132.383 389.983Q133.208 388.895 134.087 387.851Q134.965 386.806 135.895 385.807Q136.826 384.808 137.806 383.858Q138.786 382.907 139.812 382.008Q140.839 381.108 141.91 380.262Q142.981 379.415 144.094 378.624Q145.206 377.833 146.357 377.1Q147.509 376.366 148.695 375.692Q149.882 375.018 151.102 374.404Q152.321 373.791 153.571 373.24Q154.82 372.69 156.095 372.203C171.914 366.023 186.68 367.778 201.913 374.397C189.785 352.814 179.215 321.306 176.686 296.548C173.688 267.205 183.426 235.397 202.176 212.62C215.958 195.878 233.295 188.191 254.61 186.2Z"/>
	<path fill="#010101" d="M475.552 137.769C490.267 137.214 504.949 137.884 519.656 137.778C544.528 137.598 569.769 136.859 594.603 138.564C594.739 150.462 593.564 162.623 592.831 174.507L589.17 234.854L587.029 273.179C586.753 277.785 587.029 283.119 585.913 287.583C585.569 288.958 585.27 289.502 584.099 290.267L583.176 289.965C582.03 288.655 582.252 287.875 582.259 286.179C582.308 274.953 583.815 263.478 584.499 252.247L587.796 195.422C588.933 177.755 590.433 159.958 590.601 142.257Q571.622 141.402 552.625 141.113C513.072 141.066 473.687 141.336 434.152 142.64C433.75 153.932 434.865 165.552 435.205 176.862L437.623 253.357C437.923 263.096 439.279 278.338 438.585 287.417C438.477 288.833 438.291 289.709 437.366 290.778L436.378 290.402C435.922 289.705 435.522 289.058 435.281 288.253C433.997 283.956 434.121 258.872 433.89 252.529L431.989 196.501C431.312 180.293 430.255 163.857 430.246 147.646C430.245 145.109 430.122 142.18 431.379 139.913C436.964 137.222 467.096 137.874 475.552 137.769Z"/>
	<path fill="#010101" d="M764.884 239.151C765.847 239.549 766.287 239.985 766.976 240.758C767.249 242.46 766.597 243.229 765.654 244.679C762.093 250.155 757.773 255.36 753.974 260.698Q743.368 275.603 733.68 291.12Q714.063 322.545 698.28 356.06C693.452 366.351 689.63 377.814 684.174 387.727L682.541 387.209C681.958 386.454 681.686 386.39 681.689 385.379C681.703 380.52 686.894 371.435 688.998 366.746Q695.296 352.498 702.286 338.577Q709.276 324.655 716.941 311.093Q724.605 297.531 732.926 284.362Q741.247 271.192 750.204 258.447C754.76 252.035 759.351 244.742 764.884 239.151Z"/>
	<path fill="#010101" d="M837.602 708.399C838.265 708.392 839.215 708.291 839.845 708.467C840.584 708.674 840.799 708.945 841.099 709.609C844.021 716.061 846.901 880.883 844.407 887.497C843.514 887.237 842.907 886.885 842.137 886.368C840.601 883.26 841.442 849.001 841.434 842.511C841.398 814.02 840.4 785.706 839.417 757.244C838.854 740.965 838.717 724.653 837.602 708.399Z"/>
	<path fill="#010101" d="M252.8 248.723C252.989 248.794 253.184 248.848 253.367 248.935C257.162 250.733 267.078 279.119 269.463 285.426C275.002 300.074 309.763 400.734 308.65 404.96C308.487 405.578 308.125 406.125 307.862 406.707L306.661 406.296C305.368 404.888 304.698 403.325 304.075 401.531C300.541 391.367 297.708 380.792 294.407 370.531Q283.137 335.053 270.675 299.977C265.113 284.281 258.145 269.097 252.59 253.457C251.849 251.371 251.846 250.74 252.8 248.723Z"/>
	<path fill="#010101" d="M279.278 811.242C280.208 811.362 280.885 811.653 281.733 812.046L282.017 812.99C280.278 816.773 277.072 820.334 274.609 823.72C268.749 831.774 262.613 839.688 257.043 847.942C256.841 847.905 256.631 847.9 256.438 847.831C255.136 847.363 254.924 847.112 254.429 845.925C255.45 841.297 275.473 815.803 279.278 811.242Z"/>
	<path fill="#010101" d="M260.705 761.64C261.227 761.712 261.457 761.721 261.997 761.913C265.078 763.009 279.692 777.682 280.734 780.57C281.256 782.018 280.851 782.318 280.177 783.607C276.633 782.565 263.439 768.916 260.949 765.361C259.978 763.973 260.377 763.157 260.705 761.64Z"/>
	<path fill="#010101" d="M752.766 763.869C752.94 763.907 753.121 763.921 753.289 763.982C754.653 764.474 754.894 764.567 755.398 765.84C754.352 768.376 737.956 780.275 734.458 783.096C733.803 782.998 733.252 782.721 732.643 782.47C732.27 781.818 731.879 781.596 732.17 780.822C733.61 776.994 748.805 766.232 752.766 763.869Z"/>
	<path fill="#010101" d="M280.156 826.81C281.354 827.357 281.97 827.637 282.789 828.721C282.648 832.368 270.31 847.171 267.425 850.614C267.296 850.58 267.16 850.565 267.039 850.51C265.781 849.94 265.706 849.747 265.255 848.519C266.301 843.419 276.642 831.87 280.156 826.81Z"/>
	<path fill="#010101" d="M365.205 175.658L366.993 176.044C368.288 176.97 369.029 178.095 369.861 179.433C372.596 183.832 378.774 193.597 379.957 198.271C380.164 199.089 379.959 199.843 379.769 200.64C377.684 200.23 377.148 199.988 375.899 198.286C372.597 193.787 364.483 180.752 365.205 175.658Z"/>
	<path fill="#010101" d="M758.615 768.891C759.782 768.931 761.114 768.833 762.15 769.437C762.742 769.783 762.7 770.25 762.875 770.856C760.968 775.071 748.198 782.417 743.882 785.57L742.638 786.174C741.381 785.675 741.243 785.789 740.674 784.589C743.764 778.489 753.911 774.456 758.615 768.891Z"/>
	<path fill="#010101" d="M647.689 178.162C649.027 178.494 649.678 178.666 650.418 179.858C650.012 184.048 642.194 198.389 639.434 201.744C638.661 201.603 638.157 201.458 637.451 201.082C636.612 200.636 636.784 200.525 636.527 199.68C639.035 192.482 643.946 184.833 647.689 178.162Z"/>
	<path fill="#010101" d="M349.147 191.237C349.328 191.267 349.511 191.286 349.689 191.328C352.627 192.011 362.8 206.529 364.421 209.759C365.163 211.236 364.979 211.721 364.524 213.294C364.271 213.225 364.016 213.166 363.767 213.085C360.486 212.019 350.742 198.313 349.005 194.755C348.281 193.271 348.58 192.728 349.147 191.237Z"/>
	<path fill="#010101" d="M732.921 825.985C737.146 828.352 747.348 838.824 750.323 842.932C750.376 844.503 749.934 844.908 749.136 846.227C747.562 845.23 746.211 843.968 744.842 842.711C741.563 839.7 731.746 831.483 731.56 827.33L732.921 825.985Z"/>
	<path fill="#010101" d="M738.182 820.238C738.326 820.255 738.471 820.264 738.613 820.29C741.531 820.824 754.268 833.364 756.029 836.442C756.714 837.639 756.366 838.096 756.051 839.374C755.499 839.284 755.277 839.267 754.78 839.133C752.029 838.392 739.383 825.779 738.018 823.06C737.423 821.876 737.8 821.435 738.182 820.238Z"/>
	<path fill="#010101" d="M254.967 769.681C257.995 771.189 271.591 783.811 272.493 786.702C272.715 787.412 271.757 788.524 271.38 789.151C268.189 787.938 256.478 776.012 253.843 772.999C253.601 771.424 254.162 771.017 254.967 769.681Z"/>
</svg>
